<?xml version="1.0" standalone="no"?>
<!DOCTYPE svg PUBLIC "-//W3C//DTD SVG 20010904//EN"
 "http://www.w3.org/TR/2001/REC-SVG-20010904/DTD/svg10.dtd">
<svg version="1.0" xmlns="http://www.w3.org/2000/svg"
 width="512.000000pt" height="512.000000pt" viewBox="0 0 512.000000 512.000000"
 preserveAspectRatio="xMidYMid meet">

<g transform="translate(0.000000,512.000000) scale(0.100000,-0.100000)"
fill="#000000" stroke="none">
<path d="M2361 5110 c-165 -23 -302 -69 -436 -145 -288 -165 -510 -446 -590
-746 -143 -545 67 -1079 545 -1384 211 -134 477 -196 750 -174 290 23 527 130
739 334 235 225 353 469 380 783 35 402 -116 778 -419 1039 -173 148 -341 233
-555 278 -93 20 -321 28 -414 15z m398 -320 c161 -41 281 -110 413 -238 126
-122 213 -266 253 -418 39 -147 38 -347 -1 -498 -72 -277 -312 -533 -590 -630
-104 -37 -186 -49 -324 -48 -262 2 -471 92 -656 283 -123 128 -188 242 -237
419 -30 109 -29 351 1 465 94 349 405 630 757 685 97 15 288 5 384 -20z"/>
<path d="M1427 2640 c-448 -50 -758 -367 -907 -924 -94 -351 -127 -855 -71
-1083 75 -306 294 -520 616 -604 l90 -24 1400 0 1400 0 88 23 c209 56 351 145
470 295 86 108 136 223 162 376 19 106 19 341 0 531 -84 875 -427 1354 -1008
1409 -151 15 -168 9 -400 -140 -164 -106 -187 -118 -309 -163 -128 -48 -201
-65 -313 -74 -267 -22 -508 49 -795 233 -240 153 -266 162 -423 145z m236
-382 c185 -120 298 -177 454 -227 165 -53 278 -71 436 -72 292 0 574 89 849
269 187 123 183 121 263 111 362 -46 589 -351 685 -924 40 -240 51 -562 24
-693 -44 -216 -207 -368 -437 -408 -71 -12 -287 -14 -1423 -11 -1257 2 -1343
4 -1399 21 -206 62 -341 208 -381 413 -17 85 -13 359 7 538 27 232 99 506 171
649 124 246 301 386 526 415 37 5 71 9 75 10 5 0 72 -41 150 -91z"/>
</g>
</svg>
