<?xml version="1.0" standalone="no"?>
<!DOCTYPE svg PUBLIC "-//W3C//DTD SVG 20010904//EN"
 "http://www.w3.org/TR/2001/REC-SVG-20010904/DTD/svg10.dtd">
<svg version="1.0" xmlns="http://www.w3.org/2000/svg"
 width="564.000000pt" height="564.000000pt" viewBox="0 0 564.000000 564.000000"
 preserveAspectRatio="xMidYMid meet">

<g transform="translate(0.000000,564.000000) scale(0.100000,-0.100000)"
fill="#000000" stroke="none">
<path d="M1708 5619 c-473 -22 -796 -119 -1070 -319 -81 -60 -230 -208 -295
-295 -180 -241 -278 -530 -315 -935 -19 -206 -19 -2315 0 -2509 29 -302 75
-483 177 -699 68 -143 137 -242 249 -360 291 -304 634 -445 1179 -483 234 -16
1739 -23 2113 -10 360 13 458 22 630 56 635 127 1072 564 1199 1199 34 172 43
270 56 629 13 379 6 1895 -10 2120 -26 346 -85 583 -204 811 -126 244 -385
494 -632 611 -245 116 -482 166 -875 185 -240 11 -1958 11 -2202 -1z m2239
-509 c444 -26 667 -111 879 -332 121 -126 189 -256 239 -452 58 -228 68 -515
62 -1684 -3 -595 -9 -979 -16 -1052 -35 -350 -125 -574 -300 -751 -126 -126
-257 -202 -436 -253 -226 -64 -473 -76 -1555 -76 -841 0 -1166 9 -1354 36
-279 40 -476 133 -637 300 -115 120 -161 195 -218 359 -82 232 -95 442 -95
1610 0 1247 11 1401 116 1670 48 122 105 210 198 305 122 124 228 190 395 244
181 58 324 75 748 86 395 11 1746 4 1974 -10z"/>
<path d="M2920 4695 c-187 -23 -341 -94 -446 -206 -142 -152 -183 -318 -184
-754 0 -126 -5 -237 -10 -245 -7 -12 -44 -16 -192 -20 l-183 -5 0 -325 0 -325
183 -5 c148 -4 185 -8 192 -20 6 -9 10 -380 10 -951 0 -859 1 -938 17 -950 24
-20 722 -21 746 0 15 12 17 98 19 956 2 519 7 947 11 951 5 5 121 12 259 16
180 5 253 10 259 19 8 14 16 70 29 224 38 427 40 400 -27 409 -25 3 -151 6
-280 6 l-233 0 -9 23 c-14 35 -1 425 14 464 26 64 43 67 311 73 133 3 245 7
248 11 4 4 8 341 6 617 l0 52 -317 -1 c-193 -1 -359 -6 -423 -14z"/>
</g>
</svg>
