<?xml version="1.0" standalone="no"?>
<!DOCTYPE svg PUBLIC "-//W3C//DTD SVG 20010904//EN"
 "http://www.w3.org/TR/2001/REC-SVG-20010904/DTD/svg10.dtd">
<svg version="1.0" xmlns="http://www.w3.org/2000/svg"
 width="512.000000pt" height="512.000000pt" viewBox="0 0 512.000000 512.000000"
 preserveAspectRatio="xMidYMid meet">

<g transform="translate(0.000000,512.000000) scale(0.100000,-0.100000)"
fill="#000000" stroke="none">
<path d="M381 4469 c-129 -25 -267 -132 -326 -253 -19 -39 -40 -95 -45 -125
-14 -73 -14 -2989 0 -3062 34 -182 196 -344 379 -379 73 -14 4267 -14 4342 0
183 34 344 195 379 379 14 74 14 2988 0 3062 -35 184 -196 345 -379 379 -67
13 -4286 12 -4350 -1z m4306 -317 c10 -6 -175 -171 -836 -742 -86 -74 -406
-351 -710 -615 -304 -264 -560 -484 -568 -488 -8 -5 -22 -3 -33 5 -11 7 -492
422 -1069 923 -649 563 -1045 913 -1038 917 16 10 4238 10 4254 0z m-3847
-793 c250 -217 523 -453 605 -524 83 -72 347 -301 588 -510 241 -209 452 -386
470 -394 38 -16 107 -10 139 12 13 8 503 432 1091 941 l1067 926 -2 -1374 c-3
-1371 -3 -1375 -24 -1402 -11 -15 -33 -37 -48 -48 l-27 -21 -2139 0 -2139 0
-27 21 c-15 11 -37 33 -48 48 -21 27 -21 31 -24 1404 l-2 1376 32 -31 c18 -17
238 -208 488 -424z"/>
</g>
</svg>
