<?xml version="1.0" standalone="no"?>
<!DOCTYPE svg PUBLIC "-//W3C//DTD SVG 20010904//EN"
 "http://www.w3.org/TR/2001/REC-SVG-20010904/DTD/svg10.dtd">
<svg version="1.0" xmlns="http://www.w3.org/2000/svg"
 width="512.000000pt" height="512.000000pt" viewBox="0 0 512.000000 512.000000"
 preserveAspectRatio="xMidYMid meet">

<g transform="translate(0.000000,512.000000) scale(0.100000,-0.100000)"
fill="#000000" stroke="none">
<path d="M2400 5097 c-31 -13 -76 -37 -100 -54 -25 -17 -532 -519 -1127 -1115
-872 -873 -1086 -1093 -1107 -1135 -96 -194 -64 -406 83 -554 92 -91 209 -139
343 -139 l68 0 0 -800 c0 -541 4 -816 11 -852 38 -182 185 -347 367 -410 66
-23 71 -23 554 -23 476 0 487 0 514 21 15 11 37 33 48 48 21 27 21 40 26 695
l5 668 30 49 c38 61 115 110 189 119 28 4 168 5 311 3 l260 -3 53 -29 c57 -32
98 -79 118 -135 10 -28 13 -181 14 -675 0 -625 0 -641 21 -682 15 -31 32 -48
64 -64 43 -21 52 -21 522 -18 l478 3 67 26 c180 70 306 210 353 394 13 51 15
176 15 862 l0 803 68 0 c188 0 352 100 433 265 34 69 34 71 34 205 0 228 115
93 -1169 1376 -1276 1277 -1148 1167 -1366 1172 -112 2 -131 0 -180 -21z m244
-287 c28 -13 382 -361 1102 -1082 866 -867 1064 -1070 1074 -1102 24 -75 -8
-162 -75 -203 -25 -15 -58 -19 -197 -23 -181 -5 -194 -9 -242 -74 -21 -27 -21
-38 -26 -934 l-5 -907 -28 -47 c-15 -26 -42 -59 -60 -72 -70 -54 -91 -56 -473
-56 l-354 0 0 560 c0 367 -4 577 -11 612 -39 187 -190 350 -380 410 -71 22
-87 23 -399 23 -358 0 -376 -2 -504 -67 -81 -41 -184 -146 -225 -230 -61 -124
-61 -119 -61 -740 l0 -568 -357 0 c-385 1 -400 3 -468 54 -19 15 -47 48 -62
74 l-28 47 -5 907 c-5 896 -5 907 -26 934 -48 65 -61 69 -242 74 -193 6 -224
17 -261 94 -25 50 -27 93 -6 144 21 50 2112 2143 2170 2172 51 25 98 25 149 0z"/>
</g>
</svg>
