<?xml version="1.0" standalone="no"?>
<!DOCTYPE svg PUBLIC "-//W3C//DTD SVG 20010904//EN"
 "http://www.w3.org/TR/2001/REC-SVG-20010904/DTD/svg10.dtd">
<svg version="1.0" xmlns="http://www.w3.org/2000/svg"
 width="512.000000pt" height="512.000000pt" viewBox="0 0 512.000000 512.000000"
 preserveAspectRatio="xMidYMid meet">

<g transform="translate(0.000000,512.000000) scale(0.100000,-0.100000)"
fill="#000000" stroke="none">
<path d="M1615 4829 c-339 -21 -592 -96 -801 -240 -84 -58 -235 -211 -291
-294 -87 -129 -155 -294 -191 -466 -44 -200 -47 -295 -47 -1269 0 -974 3
-1069 47 -1269 38 -179 106 -342 199 -477 59 -85 211 -235 296 -292 204 -137
456 -211 793 -231 188 -11 1692 -11 1880 0 337 20 589 94 793 231 85 57 237
207 296 292 129 188 202 406 233 696 19 179 19 1921 0 2100 -31 290 -104 508
-233 696 -59 85 -211 235 -296 292 -204 137 -456 211 -793 231 -184 11 -1699
11 -1885 0z m1785 -409 c360 -17 549 -71 707 -200 115 -94 185 -194 238 -342
72 -202 85 -405 85 -1318 0 -912 -13 -1103 -84 -1312 -44 -130 -85 -196 -182
-292 -96 -97 -162 -138 -292 -182 -210 -72 -395 -84 -1312 -84 -917 0 -1102
12 -1312 84 -130 44 -196 85 -292 182 -97 96 -138 162 -182 292 -71 209 -84
400 -84 1312 0 913 13 1116 85 1318 38 107 66 157 130 236 161 198 390 287
785 305 232 11 1486 12 1710 1z"/>
<path d="M3681 4037 c-51 -16 -137 -100 -158 -155 -89 -232 144 -453 372 -353
52 23 117 95 140 154 26 70 17 172 -21 234 -35 56 -99 108 -152 123 -46 13
-136 11 -181 -3z"/>
<path d="M2355 3714 c-225 -38 -431 -143 -603 -308 -105 -101 -169 -185 -232
-307 -99 -192 -136 -366 -127 -593 10 -224 76 -427 198 -607 55 -81 185 -217
269 -280 194 -147 446 -229 700 -229 254 0 506 82 700 229 84 63 214 199 269
280 122 180 188 383 198 607 9 227 -28 401 -127 593 -63 122 -127 206 -232
307 -175 168 -380 271 -613 309 -110 18 -292 18 -400 -1z m436 -434 c108 -36
159 -63 246 -132 112 -89 193 -206 242 -355 128 -382 -72 -798 -453 -941 -178
-67 -354 -67 -532 0 -208 78 -364 234 -442 442 -148 392 49 826 440 973 115
44 172 53 299 48 86 -3 125 -10 200 -35z"/>
</g>
</svg>
