<?xml version="1.0" standalone="no"?>
<!DOCTYPE svg PUBLIC "-//W3C//DTD SVG 20010904//EN"
 "http://www.w3.org/TR/2001/REC-SVG-20010904/DTD/svg10.dtd">
<svg version="1.0" xmlns="http://www.w3.org/2000/svg"
 width="512.000000pt" height="512.000000pt" viewBox="0 0 512.000000 512.000000"
 preserveAspectRatio="xMidYMid meet">

<g transform="translate(0.000000,512.000000) scale(0.100000,-0.100000)"
fill="#000000" stroke="none">
<path d="M2430 4945 c-239 -54 -569 -221 -983 -497 -159 -106 -228 -155 -467
-331 -36 -27 -118 -83 -182 -125 -175 -116 -269 -192 -418 -342 -190 -190
-296 -346 -355 -524 -25 -75 -27 -89 -23 -230 3 -150 3 -151 37 -214 45 -83
114 -144 199 -176 47 -18 313 -68 907 -171 462 -80 841 -147 842 -149 2 -1
-10 -84 -27 -183 -58 -354 -84 -680 -79 -977 l4 -178 28 -24 c35 -30 69 -31
101 -1 l25 22 5 300 c5 313 18 472 62 755 14 91 47 308 73 482 26 175 51 321
55 325 10 10 632 10 642 1 4 -5 11 -104 15 -220 10 -254 23 -414 50 -603 57
-405 168 -820 323 -1212 49 -124 56 -151 56 -210 0 -72 -20 -130 -65 -189 -25
-33 -110 -94 -130 -94 -29 0 -84 228 -85 348 0 53 -4 67 -25 87 -32 33 -78 33
-110 0 -20 -19 -25 -34 -25 -77 0 -69 24 -226 48 -310 l19 -68 -69 0 -69 0
-24 54 c-37 84 -57 171 -64 285 -6 92 -9 105 -30 122 -32 27 -77 24 -106 -6
-20 -19 -25 -34 -25 -77 0 -69 24 -226 48 -310 l19 -68 -69 0 -69 0 -24 54
c-37 84 -57 171 -64 285 -6 92 -9 105 -30 122 -32 27 -77 24 -106 -6 -20 -19
-25 -34 -25 -76 0 -64 26 -243 44 -304 8 -25 11 -45 6 -45 -14 0 -96 96 -132
155 -20 33 -52 107 -72 165 -20 58 -43 111 -53 118 -47 34 -123 -8 -123 -68 0
-41 41 -164 84 -248 68 -134 154 -229 256 -283 l45 -24 423 -3 c390 -2 426 -1
450 15 15 10 48 29 74 42 26 13 68 44 94 70 106 103 149 215 142 364 -4 84
-10 105 -65 242 -123 305 -235 696 -287 1005 -27 156 -61 429 -55 434 2 2 378
65 834 140 457 75 857 141 889 147 69 12 160 55 210 100 43 37 92 134 106 208
42 225 -47 502 -247 770 -170 229 -506 496 -826 657 -49 25 -127 73 -175 108
-401 290 -813 524 -1066 608 -143 47 -258 57 -366 33z m320 -185 c226 -75 597
-287 976 -557 76 -54 197 -129 267 -166 553 -288 937 -731 964 -1112 8 -120
-9 -190 -61 -242 -59 -59 -126 -77 -281 -76 -147 2 -303 24 -735 107 -711 137
-900 160 -1330 160 -418 0 -629 -23 -1305 -145 -495 -89 -591 -101 -758 -97
-152 4 -210 19 -265 71 -53 49 -67 93 -67 212 1 101 4 117 34 194 18 46 65
131 104 190 124 187 404 445 643 593 38 24 130 88 204 144 543 404 1006 672
1290 745 104 26 198 20 320 -21z m-693 -2107 c-3 -21 -14 -94 -23 -163 -9 -69
-20 -129 -24 -133 -4 -4 -42 -2 -86 5 l-79 14 -3 146 -3 146 83 10 c147 17
141 18 135 -25z m1116 21 l27 -6 0 -153 0 -153 -63 -11 c-35 -6 -66 -11 -70
-11 -10 0 -17 76 -19 218 l-3 133 50 -6 c28 -3 62 -8 78 -11z m315 -49 l32 -6
0 -103 0 -103 -51 -7 c-29 -4 -65 -10 -80 -13 l-29 -5 0 129 0 130 48 -8 c26
-5 62 -11 80 -14z m-1808 -100 c0 -131 8 -122 -97 -104 l-63 11 0 93 0 93 63
10 c107 16 97 27 97 -103z m-322 -61 c-4 -4 -328 53 -334 59 -2 2 72 17 164
33 l167 30 3 -59 c2 -33 1 -61 0 -63z m2537 85 c96 -18 172 -36 167 -40 -4 -3
-83 -18 -177 -33 -93 -15 -178 -30 -187 -32 -16 -5 -18 3 -18 71 0 72 1 77 20
72 11 -3 99 -20 195 -38z"/>
<path d="M1637 3988 c-9 -7 -165 -199 -346 -427 -357 -446 -357 -446 -306
-496 26 -27 71 -33 98 -12 9 6 165 198 346 426 357 446 357 446 306 496 -26
27 -71 33 -98 13z"/>
<path d="M2031 3983 c-16 -14 -52 -118 -146 -433 -69 -228 -125 -425 -125
-438 0 -33 43 -72 78 -72 60 0 65 9 197 453 69 229 125 426 125 438 0 30 -44
69 -78 69 -17 0 -39 -8 -51 -17z"/>
<path d="M2505 3975 l-25 -24 0 -431 0 -431 25 -24 c15 -16 36 -25 55 -25 19
0 40 9 55 25 l25 24 0 431 0 431 -25 24 c-15 16 -36 25 -55 25 -19 0 -40 -9
-55 -25z"/>
<path d="M2985 3975 c-14 -13 -25 -34 -25 -47 0 -13 56 -210 125 -438 132
-441 136 -450 197 -450 35 0 78 39 78 72 0 13 -56 210 -125 438 -94 315 -130
419 -146 433 -31 25 -75 22 -104 -8z"/>
<path d="M3385 3975 c-39 -38 -33 -73 26 -146 27 -35 57 -70 66 -76 45 -35
123 7 123 65 0 28 -76 138 -117 170 -27 20 -72 14 -98 -13z"/>
<path d="M3646 3659 c-19 -15 -26 -30 -26 -56 0 -31 24 -66 196 -282 108 -135
205 -254 216 -263 29 -26 74 -23 103 7 49 48 42 61 -180 338 -112 141 -213
261 -224 267 -30 15 -55 12 -85 -11z"/>
</g>
</svg>
